<svg xmlns="http://www.w3.org/2000/svg" width="20" height="19" viewBox="0 0 20 19" fill="none">
<circle cx="7.75024" cy="15.7502" r="2.5" stroke="black" stroke-width="1.5" stroke-linecap="round" stroke-linejoin="round"/>
<path d="M18.7502 13.1477L10.2325 15.4299" stroke="black" stroke-width="1.5" stroke-linecap="round" stroke-linejoin="round"/>
<path fill-rule="evenodd" clip-rule="evenodd" d="M17.2673 9.8082L12.1417 11.1815C11.6293 11.3188 11.0834 11.2469 10.624 10.9817C10.1647 10.7165 9.82947 10.2796 9.69219 9.76725L8.31887 4.64166C8.1816 4.1293 8.25348 3.58339 8.51871 3.12403C8.78394 2.66466 9.22078 2.32947 9.73314 2.1922L14.8588 0.81888C15.9257 0.533017 17.0224 1.16619 17.3082 2.23311L18.6816 7.35874C18.9674 8.42567 18.3342 9.52232 17.2673 9.8082Z" stroke="black" stroke-width="1.5" stroke-linecap="round" stroke-linejoin="round"/>
<path d="M6.80975 13.4293L4.37781 4.35414C4.09195 3.28742 2.99561 2.65429 1.92881 2.93986L0.750244 3.25536" stroke="black" stroke-width="1.5" stroke-linecap="round" stroke-linejoin="round"/>
</svg>